<svg width="25" height="18" viewBox="0 0 25 18" fill="none" xmlns="http://www.w3.org/2000/svg">
<path d="M17.7537 10.2712C19.295 11.3175 20.375 12.735 20.375 14.625V18H24.875V14.625C24.875 12.1725 20.8587 10.7212 17.7537 10.2712Z" fill="#666666"/>
<path d="M15.875 9C18.3613 9 20.375 6.98625 20.375 4.5C20.375 2.01375 18.3613 0 15.875 0C15.3463 0 14.8513 0.1125 14.3788 0.27C15.3125 1.42875 15.875 2.9025 15.875 4.5C15.875 6.0975 15.3125 7.57125 14.3788 8.73C14.8513 8.8875 15.3463 9 15.875 9Z" fill="#666666"/>
<path d="M9.125 9C11.6112 9 13.625 6.98625 13.625 4.5C13.625 2.01375 11.6112 0 9.125 0C6.63875 0 4.625 2.01375 4.625 4.5C4.625 6.98625 6.63875 9 9.125 9ZM9.125 2.25C10.3625 2.25 11.375 3.2625 11.375 4.5C11.375 5.7375 10.3625 6.75 9.125 6.75C7.8875 6.75 6.875 5.7375 6.875 4.5C6.875 3.2625 7.8875 2.25 9.125 2.25Z" fill="#666666"/>
<path d="M9.125 10.125C6.12125 10.125 0.125 11.6325 0.125 14.625V18H18.125V14.625C18.125 11.6325 12.1287 10.125 9.125 10.125ZM15.875 15.75H2.375V14.6363C2.6 13.8263 6.0875 12.375 9.125 12.375C12.1625 12.375 15.65 13.8263 15.875 14.625V15.75Z" fill="#666666"/>
</svg>
