<svg width="27" height="17" viewBox="0 0 27 17" fill="none" xmlns="http://www.w3.org/2000/svg">
<path d="M18.3571 7.28571C20.3728 7.28571 21.9878 5.65857 21.9878 3.64286C21.9878 1.62714 20.3728 0 18.3571 0C16.3414 0 14.7143 1.62714 14.7143 3.64286C14.7143 5.65857 16.3414 7.28571 18.3571 7.28571ZM8.64282 7.28571C10.6585 7.28571 12.2735 5.65857 12.2735 3.64286C12.2735 1.62714 10.6585 0 8.64282 0C6.62711 0 4.99997 1.62714 4.99997 3.64286C4.99997 5.65857 6.62711 7.28571 8.64282 7.28571ZM8.64282 9.71429C5.81354 9.71429 0.142822 11.135 0.142822 13.9643V17H17.1428V13.9643C17.1428 11.135 11.4721 9.71429 8.64282 9.71429ZM18.3571 9.71429C18.005 9.71429 17.6042 9.73857 17.1793 9.775C18.5878 10.795 19.5714 12.1671 19.5714 13.9643V17H26.8571V13.9643C26.8571 11.135 21.1864 9.71429 18.3571 9.71429Z" fill="white"/>
</svg>
