<svg width="19" height="18" viewBox="0 0 19 18" fill="none" xmlns="http://www.w3.org/2000/svg">
<path d="M7.5 11H1.5C0.9475 11 0.5 10.5525 0.5 10V1C0.5 0.4475 0.9475 0 1.5 0H7.5C8.0525 0 8.5 0.4475 8.5 1V10C8.5 10.5525 8.0525 11 7.5 11Z" fill="#F2F9FF"/>
<path d="M17.5 5H11.5C10.9475 5 10.5 4.5525 10.5 4V1C10.5 0.4475 10.9475 0 11.5 0H17.5C18.0525 0 18.5 0.4475 18.5 1V4C18.5 4.5525 18.0525 5 17.5 5Z" fill="#F2F9FF"/>
<path d="M7.5 18H1.5C0.9475 18 0.5 17.5525 0.5 17V14C0.5 13.4475 0.9475 13 1.5 13H7.5C8.0525 13 8.5 13.4475 8.5 14V17C8.5 17.5525 8.0525 18 7.5 18Z" fill="#F2F9FF"/>
<path d="M17.5 18H11.5C10.9475 18 10.5 17.5525 10.5 17V8C10.5 7.4475 10.9475 7 11.5 7H17.5C18.0525 7 18.5 7.4475 18.5 8V17C18.5 17.5525 18.0525 18 17.5 18Z" fill="#F2F9FF"/>
</svg>
