<svg width="19" height="18" viewBox="0 0 19 18" fill="none" xmlns="http://www.w3.org/2000/svg">
<path d="M2.3 0C1.31624 0 0.5 0.816243 0.5 1.8V8.1C0.5 9.08376 1.31624 9.9 2.3 9.9H6.8C7.78376 9.9 8.6 9.08376 8.6 8.1V1.8C8.6 0.816243 7.78376 0 6.8 0H2.3ZM12.2 0C11.2162 0 10.4 0.816243 10.4 1.8V4.5C10.4 5.48376 11.2162 6.3 12.2 6.3H16.7C17.6838 6.3 18.5 5.48376 18.5 4.5V1.8C18.5 0.816243 17.6838 0 16.7 0H12.2ZM2.3 1.8H6.8V8.1H2.3V1.8ZM12.2 1.8H16.7V4.5H12.2V1.8ZM12.2 8.1C11.2162 8.1 10.4 8.91624 10.4 9.9V16.2C10.4 17.1838 11.2162 18 12.2 18H16.7C17.6838 18 18.5 17.1838 18.5 16.2V9.9C18.5 8.91624 17.6838 8.1 16.7 8.1H12.2ZM12.2 9.9H16.7V16.2H12.2V9.9ZM2.3 11.7C1.31624 11.7 0.5 12.5162 0.5 13.5V16.2C0.5 17.1838 1.31624 18 2.3 18H6.8C7.78376 18 8.6 17.1838 8.6 16.2V13.5C8.6 12.5162 7.78376 11.7 6.8 11.7H2.3ZM2.3 13.5H6.8V16.2H2.3V13.5Z" fill="#666666"/>
</svg>
