<svg width="19" height="18" viewBox="0 0 19 18" fill="none" xmlns="http://www.w3.org/2000/svg">
<path d="M16.1937 9.88125C16.2312 9.6 16.25 9.30937 16.25 9C16.25 8.7 16.2312 8.4 16.1844 8.11875L18.0875 6.6375C18.2562 6.50625 18.3031 6.25312 18.2 6.06562L16.4 2.95312C16.2875 2.74687 16.0531 2.68125 15.8469 2.74687L13.6062 3.64687C13.1375 3.29062 12.6406 2.99062 12.0875 2.76562L11.75 0.384375C11.7125 0.159375 11.525 0 11.3 0H7.69998C7.47498 0 7.29685 0.159375 7.25936 0.384375L6.92186 2.76562C6.36873 2.99062 5.86248 3.3 5.40311 3.64687L3.16248 2.74687C2.95623 2.67187 2.72186 2.74687 2.60936 2.95312L0.818731 6.06562C0.706231 6.2625 0.743731 6.50625 0.931231 6.6375L2.83436 8.11875C2.78748 8.4 2.74998 8.70937 2.74998 9C2.74998 9.29062 2.76873 9.6 2.81561 9.88125L0.912481 11.3625C0.743731 11.4937 0.696856 11.7469 0.799981 11.9344L2.59998 15.0469C2.71248 15.2531 2.94686 15.3187 3.15311 15.2531L5.39373 14.3531C5.86248 14.7094 6.35935 15.0094 6.91248 15.2344L7.24998 17.6156C7.29686 17.8406 7.47498 18 7.69998 18H11.3C11.525 18 11.7125 17.8406 11.7406 17.6156L12.0781 15.2344C12.6312 15.0094 13.1375 14.7094 13.5969 14.3531L15.8375 15.2531C16.0437 15.3281 16.2781 15.2531 16.3906 15.0469L18.1906 11.9344C18.3031 11.7281 18.2562 11.4937 18.0781 11.3625L16.1937 9.88125ZM9.49998 12.375C7.64373 12.375 6.12498 10.8562 6.12498 9C6.12498 7.14375 7.64373 5.625 9.49998 5.625C11.3562 5.625 12.875 7.14375 12.875 9C12.875 10.8562 11.3562 12.375 9.49998 12.375Z" fill="white"/>
</svg>
