<svg width="19" height="18" viewBox="0 0 19 18" fill="none" xmlns="http://www.w3.org/2000/svg">
<path d="M16.189 9.882C16.225 9.594 16.252 9.306 16.252 9C16.252 8.694 16.225 8.406 16.189 8.118L18.088 6.633C18.259 6.498 18.304 6.255 18.196 6.057L16.396 2.943C16.315 2.799 16.162 2.718 16 2.718C15.946 2.718 15.892 2.727 15.847 2.745L13.606 3.645C13.138 3.285 12.634 2.988 12.085 2.763L11.743 0.378C11.716 0.162 11.527 0 11.302 0H7.702C7.477 0 7.288 0.162 7.261 0.378L6.919 2.763C6.37 2.988 5.866 3.294 5.398 3.645L3.157 2.745C3.103 2.727 3.049 2.718 2.995 2.718C2.842 2.718 2.689 2.799 2.608 2.943L0.808004 6.057C0.691004 6.255 0.745004 6.498 0.916004 6.633L2.815 8.118C2.779 8.406 2.752 8.703 2.752 9C2.752 9.297 2.779 9.594 2.815 9.882L0.916004 11.367C0.745004 11.502 0.700004 11.745 0.808004 11.943L2.608 15.057C2.689 15.201 2.842 15.282 3.004 15.282C3.058 15.282 3.112 15.273 3.157 15.255L5.398 14.355C5.866 14.715 6.37 15.012 6.919 15.237L7.261 17.622C7.288 17.838 7.477 18 7.702 18H11.302C11.527 18 11.716 17.838 11.743 17.622L12.085 15.237C12.634 15.012 13.138 14.706 13.606 14.355L15.847 15.255C15.901 15.273 15.955 15.282 16.009 15.282C16.162 15.282 16.315 15.201 16.396 15.057L18.196 11.943C18.304 11.745 18.259 11.502 18.088 11.367L16.189 9.882ZM14.407 8.343C14.443 8.622 14.452 8.811 14.452 9C14.452 9.189 14.434 9.387 14.407 9.657L14.281 10.674L15.082 11.304L16.054 12.06L15.424 13.149L14.281 12.69L13.345 12.312L12.535 12.924C12.148 13.212 11.779 13.428 11.41 13.581L10.456 13.968L10.312 14.985L10.132 16.2H8.872L8.701 14.985L8.557 13.968L7.603 13.581C7.216 13.419 6.856 13.212 6.496 12.942L5.677 12.312L4.723 12.699L3.58 13.158L2.95 12.069L3.922 11.313L4.723 10.683L4.597 9.666C4.57 9.387 4.552 9.18 4.552 9C4.552 8.82 4.57 8.613 4.597 8.343L4.723 7.326L3.922 6.696L2.95 5.94L3.58 4.851L4.723 5.31L5.659 5.688L6.469 5.076C6.856 4.788 7.225 4.572 7.594 4.419L8.548 4.032L8.692 3.015L8.872 1.8H10.123L10.294 3.015L10.438 4.032L11.392 4.419C11.779 4.581 12.139 4.788 12.499 5.058L13.318 5.688L14.272 5.301L15.415 4.842L16.045 5.931L15.082 6.696L14.281 7.326L14.407 8.343ZM9.502 5.4C7.513 5.4 5.902 7.011 5.902 9C5.902 10.989 7.513 12.6 9.502 12.6C11.491 12.6 13.102 10.989 13.102 9C13.102 7.011 11.491 5.4 9.502 5.4ZM9.502 10.8C8.512 10.8 7.702 9.99 7.702 9C7.702 8.01 8.512 7.2 9.502 7.2C10.492 7.2 11.302 8.01 11.302 9C11.302 9.99 10.492 10.8 9.502 10.8Z" fill="#666666"/>
</svg>
