<svg width="100" height="177" viewBox="0 0 100 177" fill="none" xmlns="http://www.w3.org/2000/svg">
<path d="M-67.6525 126.888L-5.32569 174.896C-18.7275 172.268 -31.3341 166.564 -42.1506 158.232C-52.9671 149.9 -61.6974 139.17 -67.6525 126.888ZM-73.609 110.636L11.9862 176.567C16.5891 176.522 21.1828 176.144 25.7313 175.437L-76.0317 97.0883C-75.5621 101.658 -74.7523 106.187 -73.609 110.636ZM-76.3621 85.1339L37.2967 172.663C40.7766 171.603 44.1878 170.329 47.5106 168.848L-75.2734 74.2726C-75.8475 77.8688 -76.211 81.4954 -76.3621 85.1339ZM-72.971 64.3283L56.6381 164.161C59.4323 162.486 62.1341 160.661 64.732 158.696L-69.7624 55.1177C-71.0131 58.131 -72.1041 61.2081 -73.0308 64.336L-72.971 64.3283ZM65.3602 18.9246C54.5533 10.574 41.9384 4.87045 28.5269 2.27111L90.8511 50.2591C84.8962 37.9678 76.1461 27.2396 65.3003 18.9323L65.3602 18.9246ZM96.8076 66.5112L11.2124 0.580521C6.61535 0.607736 2.02668 0.978095 -2.51532 1.68849L99.1627 80.0071C98.692 75.4576 97.8848 70.9492 96.7478 66.5189L96.8076 66.5112ZM99.5607 92.0136L-14.0981 4.48455C-17.5749 5.55391 -20.9854 6.82768 -24.3119 8.29914L98.472 102.875C99.028 99.2804 99.3715 95.6562 99.5009 92.0213L99.5607 92.0136ZM96.1722 112.839L-33.4395 12.9864C-36.2336 14.6617 -38.9355 16.4862 -41.5334 18.4518L92.9559 121.99C94.1929 119.013 95.2723 115.914 96.1722 112.839ZM88.8791 130.603L-48.7714 24.5766C-51.0283 26.7145 -53.1736 28.9672 -55.1985 31.3259L83.9837 138.533C85.751 135.982 87.3858 133.342 88.8817 130.623L88.8791 130.603ZM-65.7377 46.5717L71.9102 152.579C74.1677 150.448 76.3138 148.201 78.3398 145.849L-60.8553 38.543C-62.6374 41.2257 -64.2426 43.8653 -65.7377 46.5717Z" fill="#008EFF"/>
</svg>
