<svg width="89" height="177" viewBox="0 0 89 177" fill="none" xmlns="http://www.w3.org/2000/svg">
<path d="M82.9526 176.542L155.47 146.036C146.569 156.394 135.385 164.542 122.8 169.836C110.215 175.13 96.5735 177.426 82.9526 176.542ZM65.8783 173.7L165.468 131.805C167.701 127.78 169.64 123.598 171.27 119.293L52.9001 169.119C57.1062 170.967 61.4443 172.498 65.8783 173.7ZM42.3405 163.506L174.567 107.866C175.363 104.316 175.939 100.721 176.291 97.1002L33.4321 157.197C36.2763 159.472 39.2508 161.578 42.3405 163.506ZM25.9203 150.286L176.721 86.8484C176.643 83.5914 176.39 80.3411 175.963 77.1115L19.4939 142.949C21.4971 145.524 23.6346 147.992 25.8975 150.342L25.9203 150.286ZM54.7175 7.57072C42.1207 12.8472 30.9333 21.0026 22.0525 31.3832L94.5512 0.86942C80.9223 -0.0190531 67.273 2.29501 54.6946 7.62661L54.7175 7.57072ZM111.626 3.71161L12.0354 45.6066C9.78986 49.618 7.84687 53.7915 6.22264 58.0922L124.525 8.32538C120.336 6.48897 116.017 4.96551 111.603 3.76747L111.626 3.71161ZM135.163 13.9059L2.93678 69.5457C2.15054 73.0972 1.57476 76.6921 1.21241 80.3114L144.072 20.2141C141.22 17.9563 138.238 15.8685 135.141 13.9618L135.163 13.9059ZM151.602 27.1328L0.783266 90.5631C0.860988 93.8201 1.11393 97.0705 1.54103 100.3L157.973 34.447C155.994 31.9016 153.832 29.4335 151.602 27.1328ZM163.451 42.2443L3.2947 109.618C4.03995 112.636 4.94016 115.614 5.99183 118.539L167.931 50.4158C166.585 47.6197 165.096 44.8948 163.47 42.2519L163.451 42.2443ZM14.0484 135.231L174.186 67.8493C173.447 64.834 172.553 61.8588 171.508 58.9358L9.47604 127.021C10.9295 129.895 12.4327 132.594 14.0484 135.231Z" fill="#FDCC50"/>
</svg>
