<svg width="122" height="38" viewBox="0 0 122 38" fill="none" xmlns="http://www.w3.org/2000/svg">
<path d="M15.3043 29.6523C15.3043 28.1388 14.8555 26.6593 14.0147 25.4009C13.1739 24.1426 11.9788 23.1618 10.5805 22.5826C9.18226 22.0034 7.64367 21.8519 6.1593 22.1471C4.67493 22.4424 3.31145 23.1712 2.24128 24.2414C1.1711 25.3115 0.442298 26.675 0.147038 28.1594C-0.148222 29.6438 0.0033132 31.1824 0.582487 32.5806C1.16166 33.9789 2.14245 35.174 3.40085 36.0148C4.65924 36.8556 6.13873 37.3044 7.65218 37.3044C8.65784 37.3072 9.65411 37.1111 10.5837 36.7275C11.5134 36.3439 12.3581 35.7804 13.0692 35.0693C13.7803 34.3582 14.3438 33.5135 14.7274 32.5839C15.111 31.6542 15.3071 30.6579 15.3043 29.6523Z" fill="white"/>
<path d="M43.5217 29.6523C43.5217 28.1388 43.073 26.6593 42.2321 25.4009C41.3913 24.1426 40.1962 23.1618 38.7979 22.5826C37.3997 22.0034 35.8611 21.8519 34.3767 22.1471C32.8923 22.4424 31.5288 23.1712 30.4586 24.2414C29.3885 25.3115 28.6597 26.675 28.3644 28.1594C28.0692 29.6438 28.2207 31.1824 28.7999 32.5806C29.3791 33.9789 30.3599 35.174 31.6183 36.0148C32.8767 36.8556 34.3561 37.3044 35.8696 37.3044C36.8752 37.3072 37.8715 37.1111 38.8011 36.7275C39.7308 36.3439 40.5755 35.7804 41.2866 35.0693C41.9977 34.3582 42.5612 33.5135 42.9448 32.5839C43.3284 31.6542 43.5245 30.6579 43.5217 29.6523Z" fill="white"/>
<path d="M71.7391 29.6523C71.7391 28.1388 71.2763 26.6593 70.4092 25.4009C69.5421 24.1426 68.3096 23.1618 66.8677 22.5826C65.4258 22.0034 63.8391 21.8519 62.3083 22.1471C60.7776 22.4424 59.3715 23.1712 58.2679 24.2414C57.1642 25.3115 56.4127 26.675 56.1082 28.1594C55.8037 29.6438 55.96 31.1824 56.5572 32.5806C57.1545 33.9789 58.1659 35.174 59.4637 36.0148C60.7614 36.8556 62.2871 37.3044 63.8479 37.3044C64.885 37.3072 65.9124 37.1111 66.871 36.7275C67.8297 36.3439 68.7008 35.7804 69.4341 35.0693C70.1674 34.3582 70.7486 33.5135 71.1442 32.5839C71.5398 31.6542 71.742 30.6579 71.7391 29.6523Z" fill="white"/>
<path d="M99.4783 29.6522C99.4783 28.1379 99.0289 26.6576 98.1872 25.3988C97.3454 24.1399 96.1491 23.1591 94.7496 22.5806C93.3502 22.002 91.8105 21.8517 90.3256 22.1487C88.8407 22.4456 87.4772 23.1765 86.4078 24.2487C85.3385 25.321 84.6114 26.6864 84.3185 28.1722C84.0256 29.6579 84.1801 31.1972 84.7624 32.595C85.3448 33.9929 86.3288 35.1866 87.5899 36.0249C88.851 36.8632 90.3325 37.3085 91.8469 37.3044C92.8508 37.3044 93.8449 37.1063 94.7721 36.7215C95.6993 36.3367 96.5415 35.7727 97.2504 35.0619C97.9594 34.351 98.5211 33.5073 98.9033 32.579C99.2856 31.6507 99.481 30.6562 99.4783 29.6522Z" fill="white"/>
<path d="M127.696 29.6522C127.696 28.1379 127.246 26.6576 126.405 25.3988C125.563 24.1399 124.366 23.1591 122.967 22.5806C121.568 22.002 120.028 21.8517 118.543 22.1487C117.058 22.4456 115.695 23.1765 114.625 24.2487C113.556 25.321 112.829 26.6864 112.536 28.1722C112.243 29.6579 112.397 31.1972 112.98 32.595C113.562 33.9929 114.546 35.1866 115.807 36.0249C117.068 36.8632 118.55 37.3085 120.064 37.3044C121.068 37.3044 122.062 37.1063 122.989 36.7215C123.917 36.3367 124.759 35.7727 125.468 35.0619C126.177 34.351 126.738 33.5073 127.121 32.579C127.503 31.6507 127.698 30.6562 127.696 29.6522Z" fill="white"/>
<path d="M31.0869 7.65225C31.0869 6.13879 30.6382 4.65933 29.7973 3.40094C28.9565 2.14255 27.7614 1.16176 26.3631 0.582582C24.9649 0.00340843 23.4263 -0.148127 21.9419 0.147134C20.4576 0.442394 19.0941 1.17118 18.0239 2.24136C16.9537 3.31153 16.2249 4.67502 15.9297 6.1594C15.6344 7.64377 15.7859 9.18236 16.3651 10.5806C16.9443 11.9789 17.9251 13.174 19.1835 14.0148C20.4419 14.8556 21.9213 15.3044 23.4348 15.3044C24.4405 15.3072 25.4367 15.1111 26.3664 14.7275C27.296 14.3439 28.1407 13.7804 28.8518 13.0693C29.5629 12.3582 30.1265 11.5135 30.51 10.5839C30.8936 9.65421 31.0897 8.65791 31.0869 7.65225Z" fill="white"/>
<path d="M59.3043 7.65215C59.3043 6.13693 58.8404 4.65584 57.9713 3.39656C57.1023 2.13728 55.8673 1.15652 54.4229 0.578591C52.9784 0.000658989 51.3896 -0.148445 49.8576 0.150202C48.3257 0.448849 46.9197 1.1818 45.8178 2.25614C44.7159 3.33048 43.9678 4.69785 43.6682 6.18495C43.3685 7.67206 43.531 9.21194 44.1348 10.6094C44.7387 12.007 45.7568 13.1992 47.0601 14.035C48.3634 14.8708 49.8934 15.3126 51.4559 15.3043C52.4894 15.3016 53.5122 15.1015 54.4659 14.7155C55.4197 14.3294 56.2857 13.765 57.0145 13.0545C57.7433 12.3439 58.3205 11.5011 58.7134 10.5741C59.1063 9.64722 59.3071 8.65432 59.3043 7.65215Z" fill="white"/>
<path d="M87.0435 7.65225C87.0435 6.13879 86.5947 4.65933 85.7539 3.40094C84.913 2.14255 83.7179 1.16176 82.3196 0.582582C80.9214 0.00340843 79.3828 -0.148127 77.8984 0.147134C76.4141 0.442394 75.0505 1.17118 73.9804 2.24136C72.9102 3.31153 72.1814 4.67502 71.8862 6.1594C71.5909 7.64377 71.7424 9.18236 72.3216 10.5806C72.9008 11.9789 73.8816 13.174 75.14 14.0148C76.3984 14.8556 77.8778 15.3044 79.3913 15.3044C80.397 15.3072 81.3932 15.1111 82.3229 14.7275C83.2525 14.3439 84.0972 13.7804 84.8083 13.0693C85.5195 12.3582 86.083 11.5135 86.4666 10.5839C86.8501 9.65421 87.0462 8.65791 87.0435 7.65225Z" fill="white"/>
<path d="M115.261 7.65225C115.261 6.13879 114.798 4.65933 113.931 3.40094C113.064 2.14255 111.831 1.16176 110.389 0.582582C108.947 0.00340843 107.361 -0.148127 105.83 0.147134C104.299 0.442394 102.893 1.17118 101.79 2.24136C100.686 3.31153 99.9343 4.67502 99.6298 6.1594C99.3254 7.64377 99.4816 9.18236 100.079 10.5806C100.676 11.9789 101.688 13.174 102.985 14.0148C104.283 14.8556 105.809 15.3044 107.37 15.3044C108.407 15.3072 109.434 15.1111 110.393 14.7275C111.351 14.3439 112.222 13.7804 112.956 13.0693C113.689 12.3582 114.27 11.5135 114.666 10.5839C115.061 9.65421 115.264 8.65791 115.261 7.65225Z" fill="white"/>
</svg>
