<svg width="517" height="366" viewBox="0 0 517 366" fill="none" xmlns="http://www.w3.org/2000/svg">
<g opacity="0.7">
<path opacity="0.7" d="M263.509 63.7247L271.79 8.71164C272.001 7.31214 271.037 6.00684 269.638 5.79619L235.948 0.725147C234.548 0.514492 233.243 1.47824 233.032 2.87775L224.752 57.8908C224.541 59.2903 225.505 60.5956 226.904 60.8062L260.594 65.8773C261.994 66.0879 263.299 65.1242 263.509 63.7247Z" fill="white"/>
<path opacity="0.1" d="M269.953 9.8252L243.572 33.1836L262.077 62.116L269.953 9.8252Z" fill="#3878FF"/>
<path opacity="0.1" d="M245.662 38.97L241.269 32.9119L247.386 27.9993L234.396 0.956421C234.05 1.12288 233.75 1.3712 233.521 1.67986C233.293 1.98852 233.143 2.34822 233.085 2.72779L224.736 58.2306C224.688 58.5733 224.717 58.9223 224.819 59.2528C224.921 59.5834 225.094 59.8876 225.327 60.1437L245.662 38.97Z" fill="#3878FF"/>
<path opacity="0.1" d="M269.221 7.47514L249.063 26.169L237.75 3.30652L269.221 7.47514Z" fill="#3878FF"/>
<path opacity="0.1" d="M261.049 63.344L246.37 40.3044L229.035 59.0101L261.049 63.344Z" fill="#3878FF"/>
</g>
<g opacity="0.7">
<path opacity="0.7" d="M236.994 340.551L237.88 289.512C237.939 288.969 238.202 288.468 238.617 288.11C239.031 287.753 239.565 287.566 240.112 287.588L271.996 286.678C272.543 286.631 273.087 286.788 273.523 287.12C273.96 287.452 274.258 287.934 274.358 288.473L278.999 339.17C279.029 339.497 278.99 339.827 278.884 340.139C278.779 340.451 278.61 340.737 278.387 340.979C278.165 341.221 277.894 341.415 277.593 341.546C277.292 341.678 276.966 341.745 276.637 341.744L239.474 342.925C239.153 342.941 238.832 342.892 238.531 342.779C238.23 342.667 237.955 342.495 237.723 342.272C237.491 342.05 237.306 341.783 237.181 341.487C237.056 341.191 236.992 340.873 236.994 340.551Z" fill="white"/>
<path opacity="0.1" d="M272.917 289.749L252.381 313.296L277.074 337.599L272.917 289.749Z" fill="#3878FF"/>
<path opacity="0.1" d="M255.463 318.126L250.055 313.402L255.204 308.088L238.872 287.942C238.586 288.097 238.344 288.323 238.171 288.598C237.997 288.873 237.897 289.187 237.88 289.512L236.994 340.587C236.987 340.946 237.063 341.301 237.214 341.626C237.366 341.952 237.589 342.238 237.868 342.464L255.463 318.126Z" fill="#3878FF"/>
<path opacity="0.1" d="M271.772 288.024L256.503 306.281L242.285 289.311L271.772 288.024Z" fill="#3878FF"/>
<path opacity="0.1" d="M276.307 339.051L256.42 319.295L241.718 340.681L276.307 339.051Z" fill="#3878FF"/>
</g>
<path d="M217.782 86.7591L186.869 10.6282C186.336 9.31692 184.842 8.68555 183.53 9.21801L136.099 28.4779C134.788 29.0103 134.156 30.505 134.689 31.8163L165.602 107.947C166.135 109.258 167.63 109.89 168.941 109.357L216.372 90.0975C217.683 89.565 218.315 88.0704 217.782 86.7591Z" fill="white"/>
<path opacity="0.1" d="M185.825 14.3835L170.343 62.5884L214.403 84.7895L185.825 14.3835Z" fill="#3878FF"/>
<path opacity="0.1" d="M177.122 68.1269L167.249 63.8638L171.205 53.3183L135.329 29.4048C135.02 29.8654 134.829 30.3945 134.771 30.9462C134.713 31.4978 134.792 32.0551 134.999 32.5696L165.301 107.203C165.491 107.664 165.782 108.077 166.152 108.412C166.521 108.747 166.961 108.996 167.438 109.14L177.122 68.1269Z" fill="#3878FF"/>
<path opacity="0.1" d="M183.192 12.0098L171.985 49.8934L141.234 29.9242L183.192 12.0098Z" fill="#3878FF"/>
<path opacity="0.1" d="M214.037 87.0686L179.011 69.3431L171.288 105.16L214.037 87.0686Z" fill="#3878FF"/>
<path d="M332.742 39.2185L288.433 77.4915C287.362 78.4167 287.244 80.0349 288.169 81.1059L311.675 108.318C312.6 109.389 314.218 109.508 315.289 108.582L359.598 70.3095C360.669 69.3843 360.787 67.7661 359.862 66.6951L336.356 39.4827C335.431 38.4116 333.813 38.2934 332.742 39.2185Z" fill="white"/>
<path opacity="0.1" d="M290.737 77.7749L327.664 77.1844L332.683 41.5327L290.737 77.7749Z" fill="#3878FF"/>
<path opacity="0.1" d="M329.896 71.1972L329.27 79.0149L321.004 78.7433L312.891 109.128C313.282 109.236 313.693 109.246 314.088 109.158C314.484 109.069 314.851 108.885 315.159 108.62L359.608 70.2171C359.884 69.978 360.103 69.6797 360.248 69.3444C360.393 69.0091 360.461 68.6455 360.447 68.2804L329.896 71.1972Z" fill="#3878FF"/>
<path opacity="0.1" d="M289.71 80.1368L318.512 79.0149L311.911 104.924L289.71 80.1368Z" fill="#3878FF"/>
<path opacity="0.1" d="M334.337 41.261L330.298 69.6029L356.845 66.5561L334.337 41.261Z" fill="#3878FF"/>
<path d="M59.0306 140.351L25.3038 99.421C25.0315 99.1618 24.67 99.0172 24.2941 99.0172C23.9182 99.0172 23.5567 99.1618 23.2844 99.421L1.17775 116.639C0.888097 116.85 0.677287 117.151 0.578854 117.496C0.480421 117.84 0.500019 118.208 0.634531 118.54L23.3907 162.446C23.4884 162.685 23.6345 162.901 23.8199 163.081C24.0054 163.26 24.2261 163.399 24.468 163.489C24.71 163.579 24.9679 163.618 25.2256 163.603C25.4833 163.588 25.7351 163.52 25.9651 163.403L58.6763 143.327C58.9199 143.175 59.1261 142.969 59.2799 142.726C59.4337 142.484 59.5311 142.209 59.5651 141.924C59.5991 141.639 59.5687 141.349 59.4762 141.077C59.3837 140.805 59.2315 140.557 59.0306 140.351Z" fill="white"/>
<path opacity="0.1" d="M2.26419 118.989L28.2561 125.389L23.6741 159.47L2.26419 118.989Z" fill="#3878FF"/>
<path opacity="0.1" d="M28.7402 130.975L30.0392 124.149L23.2726 122.886L23.9929 99.1965C24.2687 99.1299 24.5573 99.1398 24.8279 99.2251C25.0984 99.3105 25.3405 99.468 25.5281 99.6807L58.5937 139.832C58.8752 140.149 59.0768 140.529 59.1816 140.939C59.2864 141.35 59.2913 141.78 59.1959 142.194L28.7402 130.975Z" fill="#3878FF"/>
<path opacity="0.1" d="M2.21695 117.205L21.3595 122.248L22.3515 102.078L2.21695 117.205Z" fill="#3878FF"/>
<path opacity="0.1" d="M25.103 160.415L28.693 132.451L54.5314 142.784L25.103 160.415Z" fill="#3878FF"/>
<path d="M384.903 83.2661H131.007C128.692 83.2661 126.471 84.1852 124.832 85.8215C123.194 87.4577 122.272 89.6774 122.268 91.9931V257.793H393.642V91.9931C393.642 90.846 393.416 89.7102 392.977 88.6507C392.537 87.5911 391.893 86.6285 391.082 85.818C390.27 85.0075 389.307 84.3649 388.246 83.927C387.186 83.4891 386.05 83.2646 384.903 83.2661Z" fill="white"/>
<path d="M404.896 254.817H111.014C108.634 254.817 106.351 255.763 104.668 257.446C102.985 259.129 102.039 261.412 102.039 263.792C102.039 266.173 102.985 268.457 104.667 270.142C106.35 271.827 108.633 272.776 111.014 272.779H404.896C407.277 272.776 409.56 271.827 411.243 270.142C412.926 268.457 413.871 266.173 413.871 263.792C413.871 261.412 412.925 259.129 411.242 257.446C409.559 255.763 407.276 254.817 404.896 254.817Z" fill="white"/>
<path d="M384.596 86.9387H131.326C129.895 86.9387 128.522 87.5073 127.51 88.5194C126.498 89.5315 125.929 90.9042 125.929 92.3355V255.301H389.981V92.3355C389.981 90.9062 389.414 89.5353 388.405 88.5236C387.395 87.5118 386.025 86.9418 384.596 86.9387Z" fill="#241084"/>
<path d="M380.959 101.062H134.94V249.574H380.959V101.062Z" fill="#AFC6F5"/>
<path d="M259.266 93.7054C259.266 93.9641 259.189 94.2171 259.046 94.4324C258.902 94.6477 258.698 94.8157 258.46 94.9153C258.221 95.0148 257.958 95.0414 257.704 94.9918C257.45 94.9422 257.216 94.8185 257.033 94.6364C256.849 94.4542 256.723 94.2218 256.671 93.9683C256.619 93.7148 256.643 93.4516 256.741 93.2119C256.838 92.9722 257.004 92.7667 257.218 92.6212C257.432 92.4758 257.685 92.3969 257.943 92.3946C258.117 92.393 258.288 92.4258 258.449 92.491C258.609 92.5561 258.755 92.6524 258.878 92.7743C259.001 92.8962 259.099 93.0412 259.165 93.201C259.232 93.3608 259.266 93.5323 259.266 93.7054Z" fill="#F7F7F7"/>
<path d="M283.061 263.178H232.849C232.536 263.178 232.235 263.302 232.014 263.524C231.793 263.745 231.668 264.046 231.668 264.359C231.668 264.672 231.793 264.972 232.014 265.194C232.235 265.415 232.536 265.54 232.849 265.54H283.061C283.375 265.54 283.675 265.415 283.896 265.194C284.118 264.972 284.242 264.672 284.242 264.359C284.242 264.046 284.118 263.745 283.896 263.524C283.675 263.302 283.375 263.178 283.061 263.178Z" fill="#241084"/>
<path opacity="0.3" d="M165.029 133.561L132.767 102.739C132.609 102.564 132.418 102.421 132.204 102.32C131.991 102.218 131.76 102.16 131.524 102.147C131.288 102.135 131.052 102.17 130.83 102.249C130.608 102.329 130.403 102.451 130.228 102.609L106.787 127.964C106.617 128.154 106.494 128.381 106.428 128.627C106.361 128.873 106.353 129.131 106.403 129.381C106.453 129.631 106.561 129.865 106.718 130.066C106.875 130.267 107.076 130.429 107.306 130.538L142.214 152.184L148.119 155.857L148.378 156.01C148.691 156.162 149.048 156.193 149.382 156.097C149.715 156.001 150.001 155.785 150.185 155.491L165.029 135.309C165.233 135.063 165.344 134.754 165.344 134.435C165.344 134.116 165.233 133.807 165.029 133.561Z" fill="#241084"/>
<path opacity="0.1" d="M393.807 282.698L332.955 239.335C332.429 238.963 331.776 238.815 331.141 238.923C330.505 239.032 329.939 239.388 329.566 239.914L302.594 277.762C302.22 278.287 302.07 278.939 302.176 279.574C302.283 280.209 302.637 280.777 303.161 281.151L303.692 281.529L320.225 293.268L364.072 324.503C364.328 324.695 364.621 324.834 364.932 324.91C365.243 324.986 365.566 324.997 365.882 324.944C366.198 324.891 366.5 324.775 366.77 324.601C367.039 324.428 367.27 324.201 367.449 323.936L394.421 286.076C394.612 285.817 394.747 285.522 394.819 285.209C394.892 284.896 394.899 284.571 394.842 284.255C394.784 283.939 394.663 283.638 394.485 283.37C394.307 283.102 394.077 282.874 393.807 282.698Z" fill="#241084"/>
<path opacity="0.3" d="M199.075 270.429L165.927 243.551C165.452 243.192 164.856 243.032 164.265 243.105C163.675 243.178 163.135 243.478 162.762 243.941L98.355 319.685C97.1741 321.09 97.3158 322.708 98.6975 323.31L146.938 344.153C147.592 344.305 148.277 344.245 148.895 343.982C149.513 343.719 150.031 343.266 150.374 342.689L151.118 341.626L174.205 308.761L199.24 273.121C199.552 272.732 199.708 272.241 199.677 271.743C199.647 271.245 199.432 270.777 199.075 270.429Z" fill="#241084"/>
<path opacity="0.3" d="M142.934 206.069L154.744 229.687L76.8034 265.115L50.8233 213.155L142.934 206.069Z" fill="#241084"/>
<path opacity="0.3" d="M372.031 201.345V230.868L413.363 246.22L427.534 202.526L372.031 201.345Z" fill="#241084"/>
<path opacity="0.3" d="M366.127 121.043L376.755 158.833L432.258 144.662L405.097 122.224L366.127 121.043Z" fill="#241084"/>
<path d="M52.3939 339.984H48.4615V336.064H47.1624V339.984H43.2418V341.283H47.1624V345.216H48.4615V341.283H52.3939V339.984Z" fill="#241084"/>
<path d="M49.0519 345.806H46.5602V341.886H42.6514V339.394H46.5602V335.473H49.0401V339.394H52.9725V341.886H49.0519V345.806ZM47.7529 344.625H47.871V340.705H51.8034V340.575H47.871V336.654H47.7411V340.575H43.8323V340.705H47.7411L47.7529 344.625Z" fill="#241084"/>
<path d="M432.648 14.1827H428.715V10.2502H427.416V14.1827H423.495V15.4817H427.416V19.4023H428.715V15.4817H432.648V14.1827Z" fill="#241084"/>
<path d="M429.306 19.9929H426.814V16.0723H422.893V13.5923H426.814V9.65991H429.294V13.5923H433.226V16.0723H429.294L429.306 19.9929ZM428.007 18.812H428.125V14.8914H432.057V14.7733H428.125V10.8408H427.995V14.7733H424.074V14.8914H427.995L428.007 18.812Z" fill="#241084"/>
<path d="M176.602 361.395H173.496V358.289H172.457V361.395H169.351V362.422H172.457V365.528H173.496V362.422H176.602V361.395Z" fill="white"/>
<path d="M173.957 366H171.997V362.894H168.891V360.922H171.997V357.816H173.957V360.922H177.075V362.894H173.957V366ZM172.93 365.067H173.024V361.961H176.13V361.855H173.024V358.749H172.918V361.855H169.812V361.961H172.918L172.93 365.067Z" fill="white"/>
<path d="M47.8828 186.277H44.777V183.171H43.7378V186.277H40.632V187.316H43.7378V190.422H44.777V187.316H47.8828V186.277Z" fill="#241084"/>
<path d="M45.2376 190.883H43.2772V187.765H40.1714V185.805H43.2772V182.687H45.2376V185.805H48.3552V187.765H45.2376V190.883ZM44.2102 189.95H44.3046V186.844H47.4104V186.749H44.3046V183.644H44.1984V186.749H41.1044V186.844H44.1984L44.2102 189.95Z" fill="#241084"/>
<path d="M160.069 3.57821H156.964V0.472412H155.924V3.57821H152.819V4.6056H155.924V7.7114H156.964V4.6056H160.069V3.57821Z" fill="#241084"/>
<path d="M157.424 8.18372H155.464V5.07792H152.358V3.1058H155.464V0H157.424V3.1058H160.542V5.07792H157.424V8.18372ZM156.385 7.2508H156.479V4.145H159.585V4.03872H156.479V0.93292H156.385V4.03872H153.279V4.145H156.385V7.2508Z" fill="#241084"/>
<path d="M482.246 142.772H478.313V138.852H477.014V142.772H473.094V144.071H477.014V148.004H478.313V144.071H482.246V142.772Z" fill="#241084"/>
<path d="M478.904 148.594H476.412V144.673H472.491V142.182H476.412V138.261H478.892V142.182H482.824V144.673H478.892L478.904 148.594ZM477.605 147.413H477.723V143.493H481.655V143.363H477.723V139.442H477.593V143.363H473.672V143.493H477.593L477.605 147.413Z" fill="#241084"/>
<path d="M332.648 355.466H328.727V351.534H327.416V355.466H323.496V356.765H327.416V360.686H328.727V356.765H332.648V355.466Z" fill="#241084"/>
<path d="M329.318 361.276H326.838V357.356H322.894V354.876H326.826V350.943H329.306V354.876H333.227V357.356H329.306L329.318 361.276ZM328.019 360.095H328.137V356.175H332.057V356.057H328.137V352.124H328.019V356.057H324.074V356.175H328.007L328.019 360.095Z" fill="#241084"/>
<path d="M496.417 223.582H492.484V219.661H491.185V223.582H487.265V224.881H491.185V228.813H492.484V224.881H496.417V223.582Z" fill="white"/>
<path d="M493.075 229.404H490.583V225.471H486.662V222.992H490.583V219.071H493.063V222.992H496.995V225.471H493.063L493.075 229.404ZM491.776 228.223H491.894V224.291H495.826V224.172H491.894V220.252H491.764V224.172H487.843V224.291H491.764L491.776 228.223Z" fill="white"/>
<g opacity="0.7">
<path opacity="0.7" d="M504.537 154.404L474.334 167.535C473.032 168.102 472.435 169.616 473.001 170.918L480.743 188.725C481.309 190.027 482.824 190.623 484.126 190.057L514.329 176.926C515.631 176.359 516.227 174.845 515.661 173.543L507.919 155.736C507.353 154.434 505.839 153.838 504.537 154.404Z" fill="white"/>
<path opacity="0.1" d="M473.094 169.284L494.197 175.531L503.408 156.152L473.094 169.284Z" fill="#3878FF"/>
<path opacity="0.1" d="M496.547 172.519L494.787 176.853L490.158 175.247L480.132 191.083C480.337 191.211 480.569 191.287 480.81 191.306C481.05 191.324 481.292 191.284 481.514 191.19L513.646 177.267C513.843 177.178 514.018 177.048 514.158 176.885C514.299 176.721 514.402 176.529 514.461 176.322L496.547 172.519Z" fill="#3878FF"/>
<path opacity="0.1" d="M472.09 170.453L488.67 174.94L480.297 188.509L472.09 170.453Z" fill="#3878FF"/>
<path opacity="0.1" d="M504.4 156.294L497.054 171.693L512.702 174.692L504.4 156.294Z" fill="#3878FF"/>
</g>
<g opacity="0.7">
<path opacity="0.7" d="M36.3319 266.446L51.6505 230.497C52.2053 229.195 51.5996 227.69 50.2976 227.135L28.7762 217.964C27.4742 217.41 25.9689 218.015 25.4141 219.317L10.0955 255.266C9.54073 256.568 10.1464 258.073 11.4484 258.628L32.9698 267.799C34.2718 268.353 35.7771 267.748 36.3319 266.446Z" fill="white"/>
<path opacity="0.1" d="M50.4218 230.29L27.5829 241.933L35.3297 265.693L50.4218 230.29Z" fill="#3878FF"/>
<path opacity="0.1" d="M28.008 246.35L26.0123 241.284L31.2201 238.922L26.9925 217.5C26.7176 217.557 26.4604 217.678 26.2425 217.855C26.0246 218.032 25.8525 218.259 25.7407 218.516L9.75115 256.045C9.65381 256.279 9.60968 256.532 9.62194 256.785C9.63419 257.039 9.70252 257.286 9.822 257.51L28.008 246.35Z" fill="#3878FF"/>
<path opacity="0.1" d="M50.3273 228.495L32.7199 237.989L28.9174 219.827L50.3273 228.495Z" fill="#3878FF"/>
<path opacity="0.1" d="M34.385 266.367L28.2443 247.46L12.6208 257.474L34.385 266.367Z" fill="#3878FF"/>
</g>
<path d="M384.1 292.898L335.86 250.474C334.797 249.539 333.178 249.643 332.243 250.706L306.071 280.465C305.136 281.528 305.24 283.147 306.303 284.082L354.543 326.507C355.606 327.442 357.225 327.338 358.159 326.275L384.332 296.515C385.267 295.452 385.163 293.833 384.1 292.898Z" fill="white"/>
<path opacity="0.1" d="M336.073 253.164L342.213 292.925L381.42 293.043L336.073 253.164Z" fill="#3878FF"/>
<path opacity="0.1" d="M349.003 294.449L340.465 294.933L339.533 286.029L305.534 281.789C305.477 282.225 305.527 282.669 305.682 283.081C305.836 283.493 306.09 283.86 306.42 284.151L354.483 326.428C354.784 326.686 355.137 326.874 355.519 326.98C355.9 327.086 356.301 327.107 356.691 327.042L349.003 294.449Z" fill="#3878FF"/>
<path opacity="0.1" d="M333.368 252.42L338.871 283.324L309.915 280.053L333.368 252.42Z" fill="#3878FF"/>
<path opacity="0.1" d="M381.963 294.791L350.775 294.637L358.014 322.849L381.963 294.791Z" fill="#3878FF"/>
<path d="M425.042 148.24L362.454 164.607C361.999 164.667 361.538 164.551 361.166 164.284C360.793 164.016 360.536 163.617 360.447 163.167L350.905 130.337C350.771 129.919 350.78 129.469 350.929 129.057C351.079 128.644 351.361 128.293 351.731 128.058L405.593 100.897C405.859 100.73 406.157 100.621 406.467 100.576C406.778 100.531 407.095 100.552 407.397 100.636C407.699 100.721 407.981 100.867 408.223 101.067C408.466 101.266 408.664 101.514 408.805 101.795L426.814 145.063C426.939 145.387 426.992 145.735 426.968 146.081C426.944 146.428 426.844 146.765 426.675 147.068C426.506 147.371 426.272 147.634 425.989 147.836C425.707 148.039 425.384 148.177 425.042 148.24Z" fill="white"/>
<path opacity="0.1" d="M353.68 128.79L383.935 141.036L403.762 104.086L353.68 128.79Z" fill="#3878FF"/>
<path opacity="0.1" d="M388.411 135.864L384.809 143.54L377.227 139.997L361.013 163.934C361.244 164.19 361.538 164.381 361.865 164.488C362.192 164.596 362.542 164.617 362.879 164.548L424.287 148.488C424.78 148.373 425.24 148.145 425.63 147.821C426.019 147.497 426.328 147.086 426.53 146.622L388.411 135.864Z" fill="#3878FF"/>
<path opacity="0.1" d="M352.369 130.514L374.877 139.218L361.45 159.86L352.369 130.514Z" fill="#3878FF"/>
<path opacity="0.1" d="M405.853 104.168L389.426 134.364L422.338 142.631L405.853 104.168Z" fill="#3878FF"/>
<path opacity="0.1" d="M399.445 54.1798L383.758 112.703C383.39 114.075 384.205 115.487 385.578 115.855L479.026 140.903C480.399 141.271 481.81 140.456 482.178 139.083L497.865 80.5604C498.233 79.1876 497.418 77.7764 496.045 77.4084L402.597 52.3603C401.224 51.9923 399.813 52.8069 399.445 54.1798Z" fill="#241084"/>
<path d="M358.852 120.642L372.043 167.075L348.543 172.236L344.528 127.527L358.852 120.642Z" fill="#AFC6FF"/>
<path d="M490.764 79.6306L409.114 57.745C407.741 57.377 406.33 58.1916 405.962 59.5644L392.314 110.481C391.946 111.854 392.761 113.265 394.134 113.633L475.784 135.519C477.157 135.887 478.568 135.072 478.936 133.699L492.584 82.7826C492.952 81.4098 492.137 79.9986 490.764 79.6306Z" fill="white"/>
<path opacity="0.1" d="M410.387 59.4471L440.241 101.759L485.505 79.4164L410.387 59.4471Z" fill="#3878FF"/>
<path opacity="0.1" d="M448.944 99.6218L439.379 105.101L433.203 95.3705L391.587 109.943C391.771 110.477 392.082 110.959 392.493 111.346C392.905 111.732 393.404 112.013 393.949 112.163L473.578 133.325C474.071 133.457 474.587 133.476 475.088 133.38C475.589 133.283 476.062 133.075 476.471 132.77L448.944 99.6218Z" fill="#3878FF"/>
<path opacity="0.1" d="M406.833 60.1321L430.888 92.6072L395.65 105.432L406.833 60.1321Z" fill="#3878FF"/>
<path opacity="0.1" d="M487.135 81.1168L451.105 98.8305L475.621 127.184L487.135 81.1168Z" fill="#3878FF"/>
<path d="M297.433 31.9674C296.365 31.9697 295.32 31.6549 294.43 31.0628C293.541 30.4706 292.848 29.6279 292.438 28.6413C292.028 27.6547 291.92 26.5686 292.128 25.5206C292.336 24.4727 292.85 23.51 293.605 22.7545C294.361 21.999 295.323 21.4848 296.371 21.277C297.419 21.0691 298.505 21.177 299.492 21.5869C300.479 21.9968 301.321 22.6904 301.913 23.5797C302.506 24.469 302.82 25.514 302.818 26.5824C302.815 28.0096 302.247 29.3775 301.237 30.3867C300.228 31.3959 298.86 31.9642 297.433 31.9674ZM297.433 23.5475C296.832 23.5451 296.244 23.7211 295.744 24.0532C295.243 24.3852 294.852 24.8584 294.621 25.4128C294.389 25.9671 294.327 26.5777 294.443 27.1672C294.559 27.7567 294.847 28.2986 295.271 28.7242C295.695 29.1498 296.236 29.4401 296.825 29.5581C297.414 29.6762 298.025 29.6168 298.58 29.3874C299.135 29.1581 299.61 28.7691 299.944 28.2697C300.278 27.7704 300.456 27.1832 300.456 26.5824C300.456 25.7795 300.138 25.0094 299.572 24.4405C299.005 23.8717 298.236 23.5506 297.433 23.5475Z" fill="white"/>
<path d="M92.8283 166.591C91.7604 166.594 90.7159 166.279 89.8268 165.687C88.9378 165.096 88.2442 164.254 87.8339 163.268C87.4237 162.282 87.3151 161.197 87.522 160.149C87.7289 159.101 88.242 158.139 88.9962 157.383C89.7505 156.627 90.7121 156.111 91.7593 155.902C92.8065 155.693 93.8922 155.799 94.879 156.207C95.8658 156.616 96.7094 157.307 97.3029 158.195C97.8965 159.083 98.2133 160.127 98.2133 161.194C98.2102 162.623 97.6422 163.992 96.6333 165.003C95.6245 166.014 94.2566 166.585 92.8283 166.591ZM92.8283 158.171C92.2271 158.169 91.6387 158.345 91.1378 158.678C90.6369 159.011 90.246 159.484 90.0149 160.039C89.7837 160.594 89.7226 161.206 89.8393 161.795C89.9561 162.385 90.2453 162.927 90.6705 163.352C91.0957 163.777 91.6375 164.067 92.2273 164.183C92.8172 164.3 93.4284 164.239 93.9834 164.008C94.5384 163.777 95.0123 163.386 95.3449 162.885C95.6775 162.384 95.8538 161.796 95.8515 161.194C95.8483 160.394 95.5288 159.627 94.9626 159.06C94.3963 158.494 93.6291 158.174 92.8283 158.171Z" fill="white"/>
<path d="M71.3593 280.632C70.2919 280.632 69.2485 280.315 68.361 279.722C67.4735 279.129 66.7818 278.287 66.3733 277.3C65.9649 276.314 65.858 275.229 66.0662 274.182C66.2745 273.135 66.7885 272.174 67.5432 271.419C68.298 270.664 69.2596 270.15 70.3064 269.942C71.3533 269.734 72.4384 269.841 73.4245 270.249C74.4107 270.658 75.2535 271.349 75.8465 272.237C76.4395 273.124 76.7561 274.168 76.7561 275.235C76.7529 276.666 76.1834 278.036 75.1719 279.048C74.1605 280.059 72.7896 280.629 71.3593 280.632ZM71.3593 272.212C70.7585 272.212 70.1713 272.39 69.672 272.724C69.1726 273.058 68.7836 273.533 68.5543 274.088C68.3249 274.644 68.2655 275.254 68.3836 275.843C68.5016 276.432 68.7919 276.973 69.2175 277.397C69.6431 277.821 70.185 278.109 70.7745 278.225C71.364 278.341 71.9746 278.279 72.5289 278.047C73.0833 277.816 73.5564 277.425 73.8885 276.924C74.2206 276.424 74.3966 275.836 74.3942 275.235C74.3911 274.432 74.07 273.663 73.5012 273.097C72.9323 272.53 72.1622 272.212 71.3593 272.212Z" fill="white"/>
<path d="M401.519 364.984C400.45 364.987 399.405 364.672 398.516 364.08C397.627 363.488 396.933 362.645 396.523 361.658C396.113 360.672 396.005 359.586 396.213 358.538C396.421 357.49 396.935 356.527 397.691 355.771C398.446 355.016 399.409 354.502 400.457 354.294C401.505 354.086 402.591 354.194 403.578 354.604C404.564 355.014 405.407 355.707 405.999 356.597C406.591 357.486 406.906 358.531 406.904 359.599C406.901 361.027 406.332 362.394 405.323 363.404C404.314 364.413 402.946 364.981 401.519 364.984ZM401.519 356.564C400.918 356.562 400.33 356.738 399.829 357.07C399.329 357.402 398.938 357.875 398.706 358.43C398.475 358.984 398.413 359.595 398.529 360.184C398.645 360.774 398.933 361.316 399.357 361.741C399.781 362.167 400.321 362.457 400.91 362.575C401.499 362.693 402.11 362.634 402.666 362.404C403.221 362.175 403.695 361.786 404.029 361.287C404.364 360.787 404.542 360.2 404.542 359.599C404.542 358.797 404.224 358.026 403.657 357.457C403.09 356.889 402.322 356.568 401.519 356.564Z" fill="white"/>
<path d="M212.573 316.567C211.504 316.569 210.459 316.254 209.57 315.662C208.681 315.07 207.987 314.228 207.577 313.241C207.167 312.254 207.059 311.168 207.267 310.12C207.475 309.072 207.989 308.11 208.745 307.354C209.5 306.599 210.463 306.084 211.511 305.877C212.559 305.669 213.645 305.777 214.632 306.186C215.618 306.596 216.461 307.29 217.053 308.179C217.645 309.069 217.96 310.114 217.958 311.182C217.955 312.609 217.386 313.977 216.377 314.986C215.368 315.995 214 316.564 212.573 316.567ZM212.573 308.147C211.972 308.145 211.384 308.321 210.883 308.653C210.383 308.985 209.992 309.458 209.76 310.012C209.529 310.567 209.467 311.177 209.583 311.767C209.699 312.356 209.987 312.898 210.411 313.324C210.835 313.749 211.375 314.04 211.964 314.158C212.554 314.276 213.164 314.216 213.72 313.987C214.275 313.758 214.75 313.369 215.084 312.869C215.418 312.37 215.596 311.783 215.596 311.182C215.596 310.379 215.278 309.609 214.711 309.04C214.145 308.471 213.376 308.15 212.573 308.147Z" fill="#241084"/>
<path d="M196.028 280.974L153.114 329.215C152.749 329.644 152.251 329.94 151.7 330.055C151.148 330.171 150.574 330.099 150.067 329.852L109.479 305.124C109.223 304.983 109.008 304.778 108.855 304.529C108.701 304.281 108.614 303.997 108.603 303.705C108.591 303.413 108.654 303.123 108.787 302.863C108.92 302.602 109.118 302.381 109.361 302.219L165.112 253.731C165.498 253.439 165.975 253.293 166.458 253.316C166.942 253.34 167.401 253.533 167.757 253.861L195.875 278.861C196.175 279.121 196.36 279.489 196.389 279.886C196.418 280.282 196.288 280.674 196.028 280.974Z" fill="white"/>
<path opacity="0.1" d="M114.167 301.121L164.096 292.689L164.734 256.624L114.167 301.121Z" fill="#3878FF"/>
<path opacity="0.1" d="M165.832 286.324L166.222 294.248L156.586 295.523L151.035 329.77C152.105 329.712 153.107 329.232 153.822 328.435L195.603 281.482C195.82 281.237 195.978 280.946 196.066 280.631C196.154 280.316 196.169 279.985 196.111 279.664L165.832 286.324Z" fill="#3878FF"/>
<path opacity="0.1" d="M112.927 304.215L153.468 296.303L149.028 325.625L112.927 304.215Z" fill="#3878FF"/>
<path opacity="0.1" d="M166.541 256.317L166.009 284.671L192.556 278.542L166.541 256.317Z" fill="#3878FF"/>
<path d="M69.4462 101.405C69.9129 100.96 70.2868 100.427 70.5462 99.8367C70.8056 99.2465 70.9453 98.6106 70.9574 97.966C70.9695 97.3213 70.8536 96.6807 70.6165 96.0811C70.3795 95.4816 70.0258 94.9349 69.5761 94.4729L48.5795 72.5434C48.135 72.0802 47.6035 71.7094 47.0154 71.4521C46.4273 71.1948 45.7941 71.0561 45.1523 71.0441C44.5105 71.032 43.8726 71.1468 43.2752 71.3818C42.6779 71.6167 42.1328 71.9674 41.6712 72.4135C40.7415 73.3144 40.206 74.5465 40.1817 75.8408C40.1573 77.1352 40.6461 78.3866 41.5413 79.3218L62.5497 101.275C62.9932 101.738 63.5237 102.108 64.1108 102.365C64.698 102.623 65.3301 102.761 65.971 102.773C66.6118 102.785 67.2487 102.671 67.8451 102.436C68.4415 102.201 68.9857 101.851 69.4462 101.405Z" fill="#241084"/>
<path d="M82.637 57.0027L90.6554 53.7315C93.5014 52.5506 95.568 48.7835 94.3989 45.9375L92.1788 42.7491C91.9039 42.0734 91.4985 41.4586 90.9858 40.9397C90.4731 40.4208 89.8632 40.0081 89.1908 39.7252C88.5185 39.4422 87.797 39.2945 87.0676 39.2906C86.3382 39.2867 85.6151 39.4266 84.9398 39.7023L76.9096 42.9734C75.5471 43.5312 74.4613 44.6063 73.8902 45.9633C73.3191 47.3202 73.3093 48.8482 73.8629 50.2124L75.398 53.9559C75.6729 54.6316 76.0783 55.2464 76.591 55.7653C77.1037 56.2841 77.7137 56.6968 78.386 56.9798C79.0583 57.2628 79.7798 57.4104 80.5092 57.4144C81.2387 57.4183 81.9617 57.2784 82.637 57.0027Z" fill="#0A5DE2"/>
<path d="M28.8465 80.1957L36.8767 76.9246C38.2379 76.3624 39.3205 75.2834 39.8872 73.9241C40.454 72.5649 40.4585 71.0364 39.8999 69.6738L38.3765 65.9303C37.8188 64.5678 36.7436 63.482 35.3866 62.9109C34.0297 62.3398 32.5017 62.33 31.1375 62.8835L23.1073 66.1311C21.7448 66.6888 20.659 67.764 20.0879 69.1209C19.5168 70.4778 19.507 72.0059 20.0605 73.37L21.5839 77.1135C22.4932 79.3809 28.1144 80.4909 28.8465 80.1957Z" fill="#0A5DE2"/>
<path d="M74.4297 31.4478L89.8052 69.1425L33.275 80.5855L26.0242 62.7892L74.4297 31.4478Z" fill="#F76D59"/>
<path d="M46.6901 49.4094L26.0242 62.7892L33.275 80.5855L57.9796 75.5784L46.6901 49.4094Z" fill="#FAFFFF"/>
<path d="M91.1815 76.487L94.5496 75.1138C95.2864 74.8135 95.6402 73.9726 95.3398 73.2358L75.5277 24.6395C75.2274 23.9027 74.3865 23.5489 73.6497 23.8493L70.2817 25.2224C69.5449 25.5228 69.1911 26.3636 69.4915 27.1004L89.3035 75.6967C89.6039 76.4335 90.4447 76.7873 91.1815 76.487Z" fill="#241084"/>
<path d="M93.8977 5.66132L83.0571 22.5863L84.6979 23.6372L95.5385 6.71226L93.8977 5.66132Z" fill="#0A5DE2"/>
<path d="M111.086 23.0467L96.5661 35.321L97.824 36.8091L112.344 24.5347L111.086 23.0467Z" fill="#0A5DE2"/>
<path d="M106.102 64.0034L105.989 65.9486L126.055 67.1091L126.167 65.1638L106.102 64.0034Z" fill="#0A5DE2"/>
<path d="M121.609 41.096L103.148 45.644L103.615 47.536L122.075 42.9879L121.609 41.096Z" fill="#0A5DE2"/>
<path d="M488.233 269.319L416.115 285.32L426.093 330.325L436.474 328.022L439.036 339.559L448.023 325.459L498.212 314.335L488.233 269.319Z" fill="#FAFFFF"/>
<path d="M481.338 280.912L428.756 292.578L429.375 295.368L481.957 283.701L481.338 280.912Z" fill="#0A5DE2"/>
<path d="M483.672 291.634L431.088 303.292L431.729 306.186L484.314 294.528L483.672 291.634Z" fill="#0A5DE2"/>
<path d="M474.996 304.732L433.445 313.943L434.038 316.618L475.589 307.406L474.996 304.732Z" fill="#0A5DE2"/>
<path d="M452.18 249.68L503.927 245.83L506.325 278.128L498.873 278.683L499.487 286.962L490.595 279.297L454.577 281.966L452.18 249.68Z" fill="#0A5DE2"/>
<path d="M498.448 252.811L460.719 255.668L460.871 257.67L498.599 254.813L498.448 252.811Z" fill="#FAFFFF"/>
<path d="M501.635 258.937L463.799 261.964L463.965 264.042L501.802 261.015L501.635 258.937Z" fill="#FAFFFF"/>
<path d="M491.683 268.678L461.88 270.935L462.025 272.854L491.828 270.597L491.683 268.678Z" fill="#FAFFFF"/>
<path d="M115.466 124.196L156.987 151.357C157.304 151.512 157.668 151.541 158.006 151.438C158.344 151.335 158.629 151.108 158.806 150.802L173.768 129.251C173.976 128.986 174.089 128.66 174.089 128.324C174.089 127.988 173.976 127.661 173.768 127.397L141.163 94.4729C141.01 94.2864 140.819 94.134 140.603 94.0254C140.388 93.9168 140.152 93.8544 139.91 93.8422C139.669 93.83 139.428 93.8682 139.203 93.9544C138.977 94.0407 138.772 94.173 138.601 94.343L114.982 121.398C114.799 121.601 114.665 121.843 114.589 122.106C114.513 122.369 114.498 122.645 114.545 122.915C114.591 123.184 114.698 123.44 114.858 123.662C115.018 123.884 115.226 124.067 115.466 124.196Z" fill="white"/>
<path opacity="0.1" d="M172.138 127.468L147.138 128.991L141.742 97.2599L172.138 127.468Z" fill="#3878FF"/>
<path opacity="0.1" d="M145.143 124.137L145.887 130.597L152.287 129.841L158.192 151.216C157.965 151.352 157.706 151.424 157.442 151.424C157.178 151.424 156.918 151.352 156.692 151.216L115.927 124.527C115.595 124.324 115.316 124.047 115.111 123.717C114.906 123.386 114.781 123.013 114.746 122.626L145.143 124.137Z" fill="#3878FF"/>
<path opacity="0.1" d="M172.682 129.05L154.165 129.888L158.9 148.181L172.682 129.05Z" fill="#3878FF"/>
<path opacity="0.1" d="M140.206 96.8112L144.777 122.803L118.808 120.772L140.206 96.8112Z" fill="#3878FF"/>
<path d="M174.902 117.324L152.299 151.57L165.077 169.626L194.694 133.597L174.902 117.324Z" fill="#AFC6FF"/>
<path d="M92.2614 245.063L156.149 224.716C156.578 224.517 156.916 224.163 157.096 223.725C157.276 223.287 157.283 222.797 157.117 222.354L147.28 188.296C147.167 187.854 146.909 187.463 146.547 187.185C146.185 186.907 145.741 186.757 145.284 186.761L83.0621 192.843C82.7343 192.842 82.4099 192.909 82.1094 193.04C81.8089 193.171 81.539 193.363 81.3169 193.604C81.0947 193.845 80.9252 194.13 80.819 194.44C80.7129 194.75 80.6725 195.079 80.7003 195.405L88.9313 243.268C89.0021 243.622 89.1503 243.956 89.3652 244.247C89.5801 244.537 89.8564 244.777 90.1744 244.948C90.4924 245.12 90.8444 245.219 91.2051 245.239C91.5659 245.258 91.9265 245.198 92.2614 245.063Z" fill="white"/>
<path opacity="0.1" d="M144.009 188.45L124.276 215.965L86.416 194.567L144.009 188.45Z" fill="#3878FF"/>
<path opacity="0.1" d="M117.498 213.91L124.902 218.634L129.555 211.277L157.035 223.275C156.976 223.628 156.824 223.959 156.596 224.235C156.368 224.511 156.071 224.722 155.735 224.846L93.0173 244.815C92.5234 244.992 91.9949 245.051 91.4741 244.987C90.9533 244.924 90.4546 244.739 90.0178 244.449L117.498 213.91Z" fill="#3878FF"/>
<path opacity="0.1" d="M146.111 189.241L131.208 209.352L154.413 219.98L146.111 189.241Z" fill="#3878FF"/>
<path opacity="0.1" d="M84.6446 195.807L115.773 213.155L91.5175 238.639L84.6446 195.807Z" fill="#3878FF"/>
<path d="M135.719 176.912L152.358 229.794L182.176 231.777L169.635 170.039L135.719 176.912Z" fill="#AFC6FF"/>
<path d="M430.805 229.439L365.749 221.256C365.252 221.106 364.822 220.789 364.532 220.358C364.241 219.928 364.108 219.411 364.155 218.894L363.34 183.325C363.291 182.825 363.408 182.323 363.673 181.897C363.938 181.47 364.335 181.142 364.804 180.963L428.644 168.315C429.057 168.188 429.493 168.156 429.92 168.22C430.347 168.284 430.754 168.443 431.111 168.686C431.468 168.929 431.766 169.248 431.983 169.622C432.2 169.995 432.33 170.412 432.364 170.843L434.36 226.546C434.369 226.988 434.278 227.426 434.092 227.827C433.907 228.229 433.632 228.582 433.289 228.861C432.947 229.14 432.545 229.337 432.114 229.437C431.684 229.538 431.236 229.538 430.805 229.439Z" fill="white"/>
<path opacity="0.2" d="M366.257 182.451L391.658 205.916L425.586 171.516L366.257 182.451Z" fill="#3878FF"/>
<path opacity="0.2" d="M397.681 202.148L391.776 208.821L385.517 202.337L364.497 220.051C364.622 220.367 364.823 220.647 365.083 220.865C365.342 221.084 365.652 221.234 365.985 221.303L430.357 229.38C430.923 229.471 431.503 229.429 432.05 229.256C432.597 229.084 433.097 228.787 433.51 228.388L397.681 202.148Z" fill="#3878FF"/>
<path opacity="0.2" d="M364.615 183.844L383.451 200.743L365.796 216.39L364.615 183.844Z" fill="#3878FF"/>
<path opacity="0.2" d="M427.924 172.378L399.192 200.932L430.51 222.531L427.924 172.378Z" fill="#3878FF"/>
<path d="M369.764 175.484C369.764 175.484 371.429 232.994 368.926 231.329C366.422 229.664 355.18 223.83 355.18 223.83L356.006 175.484H369.764Z" fill="#AFC6FF"/>
<path d="M82.4953 319.448C82.4953 319.271 82.4953 319.106 82.4953 318.941C82.4955 316.015 81.6968 313.144 80.1854 310.638C78.674 308.133 76.5073 306.087 73.9189 304.723C71.3304 303.358 68.4186 302.726 65.4973 302.894C62.576 303.063 59.7562 304.026 57.3419 305.679C54.4147 300.595 49.8916 296.618 44.4741 294.366C39.0566 292.114 33.0474 291.712 27.3784 293.223C21.7094 294.734 16.6974 298.074 13.1196 302.724C9.54178 307.373 7.59815 313.074 7.59009 318.941C7.59009 319.106 7.59009 319.271 7.59009 319.448H82.4953Z" fill="#FAFFFF"/>
<path d="M300.456 352.526C300.456 352.325 300.456 352.136 300.456 351.935C300.45 348.503 299.509 345.138 297.735 342.2C295.96 339.262 293.419 336.863 290.384 335.261C287.349 333.658 283.935 332.913 280.508 333.104C277.081 333.296 273.771 334.417 270.933 336.347C267.504 330.353 262.19 325.66 255.817 322.998C249.445 320.337 242.371 319.857 235.697 321.632C229.023 323.408 223.123 327.34 218.915 332.816C214.708 338.292 212.428 345.006 212.431 351.912C212.431 352.112 212.431 352.301 212.431 352.502L300.456 352.526Z" fill="#FAFFFF"/>
<path d="M393.075 27.7633C393.075 27.5861 393.075 27.4208 393.075 27.2555C393.073 24.33 392.274 21.4604 390.762 18.9556C389.251 16.4507 387.085 14.4056 384.498 13.0402C381.91 11.6749 379 11.0411 376.079 11.207C373.158 11.373 370.338 12.3324 367.922 13.982C364.988 8.90575 360.463 4.93787 355.047 2.69241C349.631 0.446953 343.626 0.0491177 337.961 1.56047C332.296 3.07182 327.287 6.40809 323.71 11.053C320.132 15.6979 318.185 21.3925 318.17 27.2555C318.17 27.4208 318.17 27.5861 318.17 27.7633H393.075Z" fill="#FAFFFF"/>
<path opacity="0.4" d="M254.519 234.34C281.879 234.34 304.058 212.161 304.058 184.801C304.058 157.441 281.879 135.262 254.519 135.262C227.159 135.262 204.979 157.441 204.979 184.801C204.979 212.161 227.159 234.34 254.519 234.34Z" fill="#241084"/>
<path d="M303.934 185.445C310.163 158.804 293.615 132.157 266.974 125.928C240.333 119.699 213.686 136.246 207.457 162.887C201.228 189.529 217.775 216.175 244.417 222.404C271.058 228.633 297.705 212.086 303.934 185.445Z" fill="#F76D59"/>
<path d="M290.264 188.169C297.997 169.079 288.789 147.335 269.699 139.603C250.609 131.871 228.866 141.078 221.134 160.168C213.401 179.258 222.609 201.002 241.699 208.734C260.788 216.466 282.532 207.259 290.264 188.169Z" fill="white"/>
<path d="M279.016 179.636C282.028 166.764 274.034 153.887 261.162 150.875C248.29 147.863 235.413 155.856 232.401 168.728C229.389 181.601 237.382 194.478 250.254 197.49C263.127 200.502 276.004 192.508 279.016 179.636Z" fill="#F76D59"/>
<path d="M255.7 185.155C261.765 185.155 266.682 180.238 266.682 174.173C266.682 168.107 261.765 163.19 255.7 163.19C249.634 163.19 244.717 168.107 244.717 174.173C244.717 180.238 249.634 185.155 255.7 185.155Z" fill="white"/>
<path d="M349.464 137.234L340.513 130.207L341.15 118.847L317.048 129.735L315.643 141.19L315.383 141.308L315.607 141.461L315.572 141.721L315.82 141.603L325.35 148.122L349.464 137.234Z" fill="#241084"/>
<path d="M338.576 129.204L255.995 175.448L255.629 174.633L338.21 128.389L338.576 129.204Z" fill="#241084"/>
<path opacity="0.5" d="M304.743 181.069L255.865 174.598L255.747 175.483L304.625 181.955C304.672 181.66 304.708 181.364 304.743 181.069Z" fill="#241084"/>
</svg>
