<svg width="30" height="30" viewBox="0 0 30 30" fill="none" xmlns="http://www.w3.org/2000/svg">
<path d="M19.1328 8.46351V9.74778L18.1735 9.77071C17.6459 9.78331 17.1412 9.81222 17.052 9.83494C16.7434 9.91356 16.5095 10.094 16.3715 10.3599L16.2444 10.605L16.2304 11.7625L16.2164 12.92H17.6114H19.0063V14.2922V15.6645L17.6254 15.6754L16.2444 15.6864L16.2336 19.2536L16.2229 22.8208H14.7683H13.3138V19.2432V15.6656H12.091H10.8682V14.2928V12.92H12.0868H13.3055L13.3262 11.516C13.3483 10.0167 13.3673 9.85428 13.5879 9.276C13.8616 8.55869 14.3432 7.99797 15.0072 7.62369C15.2696 7.47576 15.8846 7.27567 16.2233 7.22804C16.3741 7.20682 17.0904 7.18714 17.8151 7.18432L19.1328 7.1792V8.46351Z" fill="#222222"/>
<path d="M15 0C6.71581 0 0 6.71582 0 15C0 23.2842 6.71581 30 15 30C23.2842 30 30 23.2842 30 15C29.9907 6.71973 23.2803 0.00927722 15 0ZM15 29C7.26806 29 1 22.7319 1 15C1 7.26807 7.26806 1 15 1C22.732 1 29 7.26807 29 15C28.9912 22.7283 22.7283 28.9912 15 29Z" fill="#222222"/>
</svg>
