<svg width="30" height="30" viewBox="0 0 30 30" fill="none" xmlns="http://www.w3.org/2000/svg">
<g opacity="0.87">
<path d="M14.9545 0.0419617C6.8025 0.0419617 0.193848 6.73994 0.193848 15.0021C0.193848 23.2643 6.8025 29.9623 14.9545 29.9623C23.1065 29.9623 29.7152 23.2643 29.7152 15.0021C29.7061 6.74383 23.1027 0.0512142 14.9545 0.0419617ZM14.9545 28.9649C7.34594 28.9649 1.17789 22.7135 1.17789 15.0021C1.17789 7.29073 7.34594 1.03931 14.9545 1.03931C22.5631 1.03931 28.7311 7.29073 28.7311 15.0021C28.7225 22.7098 22.5595 28.9561 14.9545 28.9649Z" fill="#222222"/>
<path d="M22.6393 21.0866V21.086H22.6427V15.9423C22.6427 13.426 22.1082 11.4875 19.2057 11.4875C17.8103 11.4875 16.8739 12.2636 16.4917 12.9993H16.4513V11.7225H13.6992V21.086H16.5649V16.4495C16.5649 15.2288 16.7932 14.0483 18.2849 14.0483C19.7546 14.0483 19.7765 15.4415 19.7765 16.5278V21.0866H22.6393Z" fill="#222222"/>
<path d="M9.03223 11.7227H11.9013V21.0862H9.03223V11.7227Z" fill="#222222"/>
<path d="M10.4664 7.06134C9.54909 7.06134 8.80469 7.81576 8.80469 8.74552C8.80469 9.67527 9.54909 10.4455 10.4664 10.4455C11.3838 10.4455 12.1282 9.67527 12.1282 8.74552C12.1276 7.81576 11.3832 7.06134 10.4664 7.06134Z" fill="#222222"/>
</g>
</svg>
