<svg width="30" height="30" viewBox="0 0 30 30" fill="none" xmlns="http://www.w3.org/2000/svg">
<g opacity="0.87">
<path d="M14.9545 0.0379944C6.8025 0.0379944 0.193848 6.73596 0.193848 14.9981C0.193848 23.2603 6.8025 29.9583 14.9545 29.9583C23.1065 29.9583 29.7152 23.2603 29.7152 14.9981C29.7061 6.73985 23.1027 0.047247 14.9545 0.0379944ZM14.9545 28.9609C7.34594 28.9609 1.17789 22.7095 1.17789 14.9981C1.17789 7.28674 7.34594 1.03534 14.9545 1.03534C22.5631 1.03534 28.7311 7.28674 28.7311 14.9981C28.7225 22.7059 22.5595 28.9522 14.9545 28.9609Z" fill="#222222"/>
<path d="M21.8429 9.01395H8.06626C7.79454 9.01395 7.57422 9.2372 7.57422 9.51259V20.4834C7.57422 20.7588 7.79454 20.982 8.06626 20.982H21.8429C22.1146 20.982 22.3349 20.7588 22.3349 20.4834V9.51259C22.3349 9.2372 22.1146 9.01395 21.8429 9.01395ZM20.5143 10.0113L14.9546 14.8399L9.39482 10.0113H20.5143ZM8.5583 19.9847V10.5966L14.6343 15.8751C14.8183 16.0348 15.0898 16.0348 15.2739 15.8751L21.3509 10.5966V19.9847H8.5583Z" fill="#222222"/>
</g>
</svg>
