<svg width="27" height="28" viewBox="0 0 27 28" fill="none" xmlns="http://www.w3.org/2000/svg">
<path d="M13.5 0.875C6.26421 0.875 0.375 6.76422 0.375 14C0.375 21.2358 6.26421 27.125 13.5 27.125C20.7358 27.125 26.625 21.2358 26.625 14C26.625 6.76422 20.7358 0.875 13.5 0.875ZM13.5 3.0625C19.5536 3.0625 24.4375 7.94643 24.4375 14C24.4375 20.0536 19.5536 24.9375 13.5 24.9375C7.44642 24.9375 2.5625 20.0536 2.5625 14C2.5625 7.94643 7.44642 3.0625 13.5 3.0625ZM9.89832 8.85168L8.35168 10.3983L11.9534 14L8.35168 17.6017L9.89832 19.1483L13.5 15.5466L17.1017 19.1483L18.6483 17.6017L15.0466 14L18.6483 10.3983L17.1017 8.85168L13.5 12.4534L9.89832 8.85168Z" fill="#444444"/>
</svg>
