<svg width="112" height="26" viewBox="0 0 112 26" fill="none" xmlns="http://www.w3.org/2000/svg">
<path d="M0 3.35781V22.6562C0 23.9508 1.04208 25 2.32781 25H7.75936V12.2656L16.2947 18.7109L24.8299 12.2656L24.8299 25H30.2615C31.5472 25 32.5893 23.9508 32.5893 22.6562V3.35781C32.5893 1.50313 31.0964 0 29.2543 0C28.5327 0 27.8312 0.235156 27.254 0.671094L16.2947 8.94531L5.33533 0.671094C4.75804 0.235156 4.05659 0 3.33497 0C1.4929 0 0 1.50313 0 3.35781Z" fill="#FF9933"/>
<path d="M35.4493 19.7C35.4493 18.58 35.6759 17.6 36.1293 16.76C36.5826 15.9067 37.2026 15.2467 37.9893 14.78C38.7893 14.3133 39.6759 14.08 40.6493 14.08C41.6093 14.08 42.4426 14.2867 43.1493 14.7C43.8559 15.1133 44.3826 15.6333 44.7293 16.26V14.26H46.5693V25.22H44.7293V23.18C44.3693 23.82 43.8293 24.3533 43.1093 24.78C42.4026 25.1933 41.5759 25.4 40.6293 25.4C39.6559 25.4 38.7759 25.16 37.9893 24.68C37.2026 24.2 36.5826 23.5267 36.1293 22.66C35.6759 21.7933 35.4493 20.8067 35.4493 19.7ZM44.7293 19.72C44.7293 18.8933 44.5626 18.1733 44.2293 17.56C43.8959 16.9467 43.4426 16.48 42.8693 16.16C42.3093 15.8267 41.6893 15.66 41.0093 15.66C40.3293 15.66 39.7093 15.82 39.1493 16.14C38.5893 16.46 38.1426 16.9267 37.8093 17.54C37.4759 18.1533 37.3093 18.8733 37.3093 19.7C37.3093 20.54 37.4759 21.2733 37.8093 21.9C38.1426 22.5133 38.5893 22.9867 39.1493 23.32C39.7093 23.64 40.3293 23.8 41.0093 23.8C41.6893 23.8 42.3093 23.64 42.8693 23.32C43.4426 22.9867 43.8959 22.5133 44.2293 21.9C44.5626 21.2733 44.7293 20.5467 44.7293 19.72Z" fill="#000080"/>
<path d="M50.5849 12.48C50.2382 12.48 49.9449 12.36 49.7049 12.12C49.4649 11.88 49.3449 11.5867 49.3449 11.24C49.3449 10.8933 49.4649 10.6 49.7049 10.36C49.9449 10.12 50.2382 10 50.5849 10C50.9182 10 51.1982 10.12 51.4249 10.36C51.6649 10.6 51.7849 10.8933 51.7849 11.24C51.7849 11.5867 51.6649 11.88 51.4249 12.12C51.1982 12.36 50.9182 12.48 50.5849 12.48ZM51.4649 14.26V25.22H49.6449V14.26H51.4649Z" fill="#000080"/>
<path d="M56.3868 10.42V25.22H54.5668V10.42H56.3868Z" fill="#000080"/>
<path d="M69.4887 19.32C69.4887 19.6667 69.4687 20.0333 69.4287 20.42H60.6687C60.7353 21.5 61.102 22.3467 61.7687 22.96C62.4487 23.56 63.2687 23.86 64.2287 23.86C65.0153 23.86 65.6687 23.68 66.1887 23.32C66.722 22.9467 67.0953 22.4533 67.3087 21.84H69.2687C68.9753 22.8933 68.3887 23.7533 67.5087 24.42C66.6287 25.0733 65.5353 25.4 64.2287 25.4C63.1887 25.4 62.2553 25.1667 61.4287 24.7C60.6153 24.2333 59.9753 23.5733 59.5087 22.72C59.042 21.8533 58.8087 20.8533 58.8087 19.72C58.8087 18.5867 59.0353 17.5933 59.4887 16.74C59.942 15.8867 60.5753 15.2333 61.3887 14.78C62.2153 14.3133 63.162 14.08 64.2287 14.08C65.2687 14.08 66.1887 14.3067 66.9887 14.76C67.7887 15.2133 68.402 15.84 68.8287 16.64C69.2687 17.4267 69.4887 18.32 69.4887 19.32ZM67.6087 18.94C67.6087 18.2467 67.4553 17.6533 67.1487 17.16C66.842 16.6533 66.422 16.2733 65.8887 16.02C65.3687 15.7533 64.7887 15.62 64.1487 15.62C63.2287 15.62 62.442 15.9133 61.7887 16.5C61.1487 17.0867 60.782 17.9 60.6887 18.94H67.6087Z" fill="#000080"/>
<path d="M73.711 16.04C74.031 15.4133 74.4843 14.9267 75.071 14.58C75.671 14.2333 76.3977 14.06 77.251 14.06V15.94H76.771C74.731 15.94 73.711 17.0467 73.711 19.26V25.22H71.891V14.26H73.711V16.04Z" fill="#000080"/>
<path d="M89.7598 15.52C89.7598 16.3333 89.5731 17.08 89.1998 17.76C88.8264 18.4267 88.2531 18.9667 87.4798 19.38C86.7064 19.7933 85.7464 20 84.5998 20H82.4798V25.04H79.0598V11H84.5998C85.7198 11 86.6664 11.1933 87.4398 11.58C88.2131 11.9667 88.7931 12.5 89.1798 13.18C89.5664 13.86 89.7598 14.64 89.7598 15.52ZM84.3398 17.28C84.9931 17.28 85.4798 17.1267 85.7998 16.82C86.1198 16.5133 86.2798 16.08 86.2798 15.52C86.2798 14.96 86.1198 14.5267 85.7998 14.22C85.4798 13.9133 84.9931 13.76 84.3398 13.76H82.4798V17.28H84.3398Z" fill="#138808"/>
<path d="M94.9602 15.74C95.3602 15.1267 95.8602 14.6467 96.4602 14.3C97.0602 13.94 97.7269 13.76 98.4602 13.76V17.38H97.5202C96.6669 17.38 96.0269 17.5667 95.6002 17.94C95.1736 18.3 94.9602 18.94 94.9602 19.86V25.04H91.5402V13.88H94.9602V15.74Z" fill="#138808"/>
<path d="M105.175 25.2C104.082 25.2 103.095 24.9667 102.215 24.5C101.348 24.0333 100.662 23.3667 100.155 22.5C99.6616 21.6333 99.4149 20.62 99.4149 19.46C99.4149 18.3133 99.6682 17.3067 100.175 16.44C100.682 15.56 101.375 14.8867 102.255 14.42C103.135 13.9533 104.122 13.72 105.215 13.72C106.308 13.72 107.295 13.9533 108.175 14.42C109.055 14.8867 109.748 15.56 110.255 16.44C110.762 17.3067 111.015 18.3133 111.015 19.46C111.015 20.6067 110.755 21.62 110.235 22.5C109.728 23.3667 109.028 24.0333 108.135 24.5C107.255 24.9667 106.268 25.2 105.175 25.2ZM105.175 22.24C105.828 22.24 106.382 22 106.835 21.52C107.302 21.04 107.535 20.3533 107.535 19.46C107.535 18.5667 107.308 17.88 106.855 17.4C106.415 16.92 105.868 16.68 105.215 16.68C104.548 16.68 103.995 16.92 103.555 17.4C103.115 17.8667 102.895 18.5533 102.895 19.46C102.895 20.3533 103.108 21.04 103.535 21.52C103.975 22 104.522 22.24 105.175 22.24Z" fill="#138808"/>
</svg>
