<svg width="18" height="14" viewBox="0 0 18 14" fill="none" xmlns="http://www.w3.org/2000/svg">
<path d="M0 12.4167C0 13.015 0.485025 13.5 1.08333 13.5H16.9167C17.515 13.5 18 13.015 18 12.4167V12.4167C18 11.8184 17.515 11.3333 16.9167 11.3333H1.08333C0.485025 11.3333 0 11.8184 0 12.4167V12.4167ZM0 7C0 7.59831 0.485025 8.08333 1.08333 8.08333H16.9167C17.515 8.08333 18 7.59831 18 7V7C18 6.40169 17.515 5.91667 16.9167 5.91667H1.08333C0.485025 5.91667 0 6.40169 0 7V7ZM1.08333 0.5C0.485025 0.5 0 0.985025 0 1.58333V1.58333C0 2.18164 0.485025 2.66667 1.08333 2.66667H16.9167C17.515 2.66667 18 2.18164 18 1.58333V1.58333C18 0.985025 17.515 0.5 16.9167 0.5H1.08333Z" fill="#0079F1"/>
</svg>
